<svg xmlns="http://www.w3.org/2000/svg" xmlns:xlink="http://www.w3.org/1999/xlink" width="300" zoomAndPan="magnify" viewBox="0 0 224.87999 74.999997" height="100" preserveAspectRatio="xMidYMid meet" version="1.0"><defs><g/><clipPath id="47ed7b73c9"><path d="M 209 31 L 224.761719 31 L 224.761719 52 L 209 52 Z M 209 31 " clip-rule="nonzero"/></clipPath><clipPath id="0e7a43f7d9"><path d="M 0 0.0195312 L 74.960938 0.0195312 L 74.960938 74.980469 L 0 74.980469 Z M 0 0.0195312 " clip-rule="nonzero"/></clipPath></defs><g fill="#12101b" fill-opacity="1"><g transform="translate(82.51823, 21.694506)"><g><path d="M 17.515625 -10.09375 L 19.5625 -10.09375 L 19.5625 -2.390625 C 18.625 -1.566406 17.507812 -0.929688 16.21875 -0.484375 C 14.925781 -0.046875 13.570312 0.171875 12.15625 0.171875 C 10.132812 0.171875 8.3125 -0.269531 6.6875 -1.15625 C 5.070312 -2.039062 3.800781 -3.265625 2.875 -4.828125 C 1.957031 -6.398438 1.5 -8.15625 1.5 -10.09375 C 1.5 -12.039062 1.957031 -13.796875 2.875 -15.359375 C 3.800781 -16.929688 5.070312 -18.160156 6.6875 -19.046875 C 8.3125 -19.929688 10.140625 -20.375 12.171875 -20.375 C 13.710938 -20.375 15.128906 -20.128906 16.421875 -19.640625 C 17.710938 -19.148438 18.800781 -18.421875 19.6875 -17.453125 L 18.359375 -16.109375 C 16.753906 -17.679688 14.722656 -18.46875 12.265625 -18.46875 C 10.628906 -18.46875 9.148438 -18.109375 7.828125 -17.390625 C 6.515625 -16.671875 5.484375 -15.671875 4.734375 -14.390625 C 3.984375 -13.109375 3.609375 -11.675781 3.609375 -10.09375 C 3.609375 -8.519531 3.984375 -7.097656 4.734375 -5.828125 C 5.484375 -4.554688 6.507812 -3.554688 7.8125 -2.828125 C 9.125 -2.097656 10.597656 -1.734375 12.234375 -1.734375 C 14.316406 -1.734375 16.078125 -2.253906 17.515625 -3.296875 Z M 17.515625 -10.09375 "/></g></g></g><g fill="#12101b" fill-opacity="1"><g transform="translate(104.815213, 21.694506)"><g><path d="M 17.078125 0 L 12.46875 -6.5 C 11.945312 -6.4375 11.40625 -6.40625 10.84375 -6.40625 L 5.421875 -6.40625 L 5.421875 0 L 3.296875 0 L 3.296875 -20.203125 L 10.84375 -20.203125 C 13.425781 -20.203125 15.445312 -19.582031 16.90625 -18.34375 C 18.375 -17.113281 19.109375 -15.425781 19.109375 -13.28125 C 19.109375 -11.695312 18.707031 -10.359375 17.90625 -9.265625 C 17.101562 -8.179688 15.960938 -7.398438 14.484375 -6.921875 L 19.421875 0 Z M 10.796875 -8.21875 C 12.796875 -8.21875 14.320312 -8.660156 15.375 -9.546875 C 16.4375 -10.429688 16.96875 -11.675781 16.96875 -13.28125 C 16.96875 -14.914062 16.4375 -16.171875 15.375 -17.046875 C 14.320312 -17.921875 12.796875 -18.359375 10.796875 -18.359375 L 5.421875 -18.359375 L 5.421875 -8.21875 Z M 10.796875 -8.21875 "/></g></g></g><g fill="#12101b" fill-opacity="1"><g transform="translate(125.669957, 21.694506)"><g><path d="M 12.125 0.171875 C 10.125 0.171875 8.3125 -0.273438 6.6875 -1.171875 C 5.0625 -2.066406 3.789062 -3.289062 2.875 -4.84375 C 1.957031 -6.40625 1.5 -8.15625 1.5 -10.09375 C 1.5 -12.039062 1.957031 -13.789062 2.875 -15.34375 C 3.789062 -16.90625 5.0625 -18.132812 6.6875 -19.03125 C 8.3125 -19.925781 10.125 -20.375 12.125 -20.375 C 14.125 -20.375 15.925781 -19.929688 17.53125 -19.046875 C 19.132812 -18.160156 20.398438 -16.929688 21.328125 -15.359375 C 22.253906 -13.796875 22.71875 -12.039062 22.71875 -10.09375 C 22.71875 -8.15625 22.253906 -6.398438 21.328125 -4.828125 C 20.398438 -3.265625 19.132812 -2.039062 17.53125 -1.15625 C 15.925781 -0.269531 14.125 0.171875 12.125 0.171875 Z M 12.125 -1.734375 C 13.71875 -1.734375 15.160156 -2.09375 16.453125 -2.8125 C 17.742188 -3.53125 18.753906 -4.53125 19.484375 -5.8125 C 20.210938 -7.09375 20.578125 -8.519531 20.578125 -10.09375 C 20.578125 -11.675781 20.210938 -13.109375 19.484375 -14.390625 C 18.753906 -15.671875 17.742188 -16.671875 16.453125 -17.390625 C 15.160156 -18.109375 13.71875 -18.46875 12.125 -18.46875 C 10.519531 -18.46875 9.066406 -18.109375 7.765625 -17.390625 C 6.472656 -16.671875 5.457031 -15.671875 4.71875 -14.390625 C 3.976562 -13.109375 3.609375 -11.675781 3.609375 -10.09375 C 3.609375 -8.519531 3.976562 -7.09375 4.71875 -5.8125 C 5.457031 -4.53125 6.472656 -3.53125 7.765625 -2.8125 C 9.066406 -2.09375 10.519531 -1.734375 12.125 -1.734375 Z M 12.125 -1.734375 "/></g></g></g><g fill="#12101b" fill-opacity="1"><g transform="translate(149.870692, 21.694506)"><g><path d="M 31.03125 -20.203125 L 24.21875 0 L 21.96875 0 L 16.046875 -17.234375 L 10.09375 0 L 7.875 0 L 1.0625 -20.203125 L 3.265625 -20.203125 L 9.09375 -2.828125 L 15.125 -20.203125 L 17.109375 -20.203125 L 23.0625 -2.734375 L 28.96875 -20.203125 Z M 31.03125 -20.203125 "/></g></g></g><g fill="#12101b" fill-opacity="1"><g transform="translate(181.917193, 21.694506)"><g><path d="M 7.21875 -18.359375 L 0.109375 -18.359375 L 0.109375 -20.203125 L 16.453125 -20.203125 L 16.453125 -18.359375 L 9.34375 -18.359375 L 9.34375 0 L 7.21875 0 Z M 7.21875 -18.359375 "/></g></g></g><g fill="#12101b" fill-opacity="1"><g transform="translate(198.47407, 21.694506)"><g><path d="M 20.171875 -20.203125 L 20.171875 0 L 18.0625 0 L 18.0625 -9.328125 L 5.421875 -9.328125 L 5.421875 0 L 3.296875 0 L 3.296875 -20.203125 L 5.421875 -20.203125 L 5.421875 -11.203125 L 18.0625 -11.203125 L 18.0625 -20.203125 Z M 20.171875 -20.203125 "/></g></g></g><g fill="#12101b" fill-opacity="1"><g transform="translate(82.51823, 51.226451)"><g><path d="M 8.859375 0.171875 C 7.359375 0.171875 5.921875 -0.0664062 4.546875 -0.546875 C 3.171875 -1.023438 2.109375 -1.660156 1.359375 -2.453125 L 2.1875 -4.09375 C 2.925781 -3.363281 3.898438 -2.769531 5.109375 -2.3125 C 6.316406 -1.863281 7.566406 -1.640625 8.859375 -1.640625 C 10.671875 -1.640625 12.023438 -1.972656 12.921875 -2.640625 C 13.828125 -3.304688 14.28125 -4.164062 14.28125 -5.21875 C 14.28125 -6.03125 14.035156 -6.675781 13.546875 -7.15625 C 13.054688 -7.632812 12.453125 -8.003906 11.734375 -8.265625 C 11.023438 -8.523438 10.035156 -8.8125 8.765625 -9.125 C 7.253906 -9.507812 6.046875 -9.878906 5.140625 -10.234375 C 4.234375 -10.585938 3.457031 -11.128906 2.8125 -11.859375 C 2.164062 -12.585938 1.84375 -13.578125 1.84375 -14.828125 C 1.84375 -15.847656 2.113281 -16.773438 2.65625 -17.609375 C 3.195312 -18.453125 4.023438 -19.125 5.140625 -19.625 C 6.253906 -20.125 7.640625 -20.375 9.296875 -20.375 C 10.453125 -20.375 11.582031 -20.210938 12.6875 -19.890625 C 13.789062 -19.578125 14.75 -19.140625 15.5625 -18.578125 L 14.828125 -16.875 C 13.984375 -17.4375 13.078125 -17.859375 12.109375 -18.140625 C 11.148438 -18.421875 10.210938 -18.5625 9.296875 -18.5625 C 7.523438 -18.5625 6.191406 -18.21875 5.296875 -17.53125 C 4.398438 -16.84375 3.953125 -15.960938 3.953125 -14.890625 C 3.953125 -14.078125 4.195312 -13.425781 4.6875 -12.9375 C 5.175781 -12.445312 5.789062 -12.070312 6.53125 -11.8125 C 7.269531 -11.550781 8.269531 -11.269531 9.53125 -10.96875 C 11.007812 -10.601562 12.203125 -10.238281 13.109375 -9.875 C 14.023438 -9.519531 14.800781 -8.984375 15.4375 -8.265625 C 16.070312 -7.546875 16.390625 -6.570312 16.390625 -5.34375 C 16.390625 -4.320312 16.113281 -3.390625 15.5625 -2.546875 C 15.019531 -1.710938 14.179688 -1.050781 13.046875 -0.5625 C 11.910156 -0.0703125 10.515625 0.171875 8.859375 0.171875 Z M 8.859375 0.171875 "/></g></g></g><g fill="#12101b" fill-opacity="1"><g transform="translate(100.25774, 51.226451)"><g><path d="M 11.421875 0.171875 C 8.804688 0.171875 6.765625 -0.578125 5.296875 -2.078125 C 3.835938 -3.578125 3.109375 -5.757812 3.109375 -8.625 L 3.109375 -20.203125 L 5.25 -20.203125 L 5.25 -8.71875 C 5.25 -6.363281 5.773438 -4.609375 6.828125 -3.453125 C 7.890625 -2.304688 9.421875 -1.734375 11.421875 -1.734375 C 13.441406 -1.734375 14.984375 -2.304688 16.046875 -3.453125 C 17.109375 -4.609375 17.640625 -6.363281 17.640625 -8.71875 L 17.640625 -20.203125 L 19.71875 -20.203125 L 19.71875 -8.625 C 19.71875 -5.757812 18.988281 -3.578125 17.53125 -2.078125 C 16.082031 -0.578125 14.046875 0.171875 11.421875 0.171875 Z M 11.421875 0.171875 "/></g></g></g><g fill="#12101b" fill-opacity="1"><g transform="translate(123.102765, 51.226451)"><g><path d="M 10.84375 -20.203125 C 13.425781 -20.203125 15.445312 -19.582031 16.90625 -18.34375 C 18.375 -17.113281 19.109375 -15.425781 19.109375 -13.28125 C 19.109375 -11.125 18.375 -9.429688 16.90625 -8.203125 C 15.445312 -6.984375 13.425781 -6.375 10.84375 -6.375 L 5.421875 -6.375 L 5.421875 0 L 3.296875 0 L 3.296875 -20.203125 Z M 10.796875 -8.25 C 12.796875 -8.25 14.320312 -8.6875 15.375 -9.5625 C 16.4375 -10.4375 16.96875 -11.675781 16.96875 -13.28125 C 16.96875 -14.914062 16.4375 -16.171875 15.375 -17.046875 C 14.320312 -17.921875 12.796875 -18.359375 10.796875 -18.359375 L 5.421875 -18.359375 L 5.421875 -8.25 Z M 10.796875 -8.25 "/></g></g></g><g fill="#12101b" fill-opacity="1"><g transform="translate(143.813282, 51.226451)"><g><path d="M 10.84375 -20.203125 C 13.425781 -20.203125 15.445312 -19.582031 16.90625 -18.34375 C 18.375 -17.113281 19.109375 -15.425781 19.109375 -13.28125 C 19.109375 -11.125 18.375 -9.429688 16.90625 -8.203125 C 15.445312 -6.984375 13.425781 -6.375 10.84375 -6.375 L 5.421875 -6.375 L 5.421875 0 L 3.296875 0 L 3.296875 -20.203125 Z M 10.796875 -8.25 C 12.796875 -8.25 14.320312 -8.6875 15.375 -9.5625 C 16.4375 -10.4375 16.96875 -11.675781 16.96875 -13.28125 C 16.96875 -14.914062 16.4375 -16.171875 15.375 -17.046875 C 14.320312 -17.921875 12.796875 -18.359375 10.796875 -18.359375 L 5.421875 -18.359375 L 5.421875 -8.25 Z M 10.796875 -8.25 "/></g></g></g><g fill="#12101b" fill-opacity="1"><g transform="translate(164.523799, 51.226451)"><g><path d="M 12.125 0.171875 C 10.125 0.171875 8.3125 -0.273438 6.6875 -1.171875 C 5.0625 -2.066406 3.789062 -3.289062 2.875 -4.84375 C 1.957031 -6.40625 1.5 -8.15625 1.5 -10.09375 C 1.5 -12.039062 1.957031 -13.789062 2.875 -15.34375 C 3.789062 -16.90625 5.0625 -18.132812 6.6875 -19.03125 C 8.3125 -19.925781 10.125 -20.375 12.125 -20.375 C 14.125 -20.375 15.925781 -19.929688 17.53125 -19.046875 C 19.132812 -18.160156 20.398438 -16.929688 21.328125 -15.359375 C 22.253906 -13.796875 22.71875 -12.039062 22.71875 -10.09375 C 22.71875 -8.15625 22.253906 -6.398438 21.328125 -4.828125 C 20.398438 -3.265625 19.132812 -2.039062 17.53125 -1.15625 C 15.925781 -0.269531 14.125 0.171875 12.125 0.171875 Z M 12.125 -1.734375 C 13.71875 -1.734375 15.160156 -2.09375 16.453125 -2.8125 C 17.742188 -3.53125 18.753906 -4.53125 19.484375 -5.8125 C 20.210938 -7.09375 20.578125 -8.519531 20.578125 -10.09375 C 20.578125 -11.675781 20.210938 -13.109375 19.484375 -14.390625 C 18.753906 -15.671875 17.742188 -16.671875 16.453125 -17.390625 C 15.160156 -18.109375 13.71875 -18.46875 12.125 -18.46875 C 10.519531 -18.46875 9.066406 -18.109375 7.765625 -17.390625 C 6.472656 -16.671875 5.457031 -15.671875 4.71875 -14.390625 C 3.976562 -13.109375 3.609375 -11.675781 3.609375 -10.09375 C 3.609375 -8.519531 3.976562 -7.09375 4.71875 -5.8125 C 5.457031 -4.53125 6.472656 -3.53125 7.765625 -2.8125 C 9.066406 -2.09375 10.519531 -1.734375 12.125 -1.734375 Z M 12.125 -1.734375 "/></g></g></g><g fill="#12101b" fill-opacity="1"><g transform="translate(188.724534, 51.226451)"><g><path d="M 17.078125 0 L 12.46875 -6.5 C 11.945312 -6.4375 11.40625 -6.40625 10.84375 -6.40625 L 5.421875 -6.40625 L 5.421875 0 L 3.296875 0 L 3.296875 -20.203125 L 10.84375 -20.203125 C 13.425781 -20.203125 15.445312 -19.582031 16.90625 -18.34375 C 18.375 -17.113281 19.109375 -15.425781 19.109375 -13.28125 C 19.109375 -11.695312 18.707031 -10.359375 17.90625 -9.265625 C 17.101562 -8.179688 15.960938 -7.398438 14.484375 -6.921875 L 19.421875 0 Z M 10.796875 -8.21875 C 12.796875 -8.21875 14.320312 -8.660156 15.375 -9.546875 C 16.4375 -10.429688 16.96875 -11.675781 16.96875 -13.28125 C 16.96875 -14.914062 16.4375 -16.171875 15.375 -17.046875 C 14.320312 -17.921875 12.796875 -18.359375 10.796875 -18.359375 L 5.421875 -18.359375 L 5.421875 -8.21875 Z M 10.796875 -8.21875 "/></g></g></g><g clip-path="url(#47ed7b73c9)"><g fill="#12101b" fill-opacity="1"><g transform="translate(209.579278, 51.226451)"><g><path d="M 7.21875 -18.359375 L 0.109375 -18.359375 L 0.109375 -20.203125 L 16.453125 -20.203125 L 16.453125 -18.359375 L 9.34375 -18.359375 L 9.34375 0 L 7.21875 0 Z M 7.21875 -18.359375 "/></g></g></g></g><g fill="#12101b" fill-opacity="1"><g transform="translate(84.40324, 67.690094)"><g><path d="M 5.90625 -2 L 1.734375 -2 L 0.84375 0 L 0.015625 0 L 3.4375 -7.484375 L 4.21875 -7.484375 L 7.640625 0 L 6.8125 0 Z M 5.625 -2.640625 L 3.828125 -6.65625 L 2.03125 -2.640625 Z M 5.625 -2.640625 "/></g></g></g><g fill="#12101b" fill-opacity="1"><g transform="translate(94.350417, 67.690094)"><g><path d="M 1.21875 -7.484375 L 2.015625 -7.484375 L 2.015625 -0.6875 L 6.203125 -0.6875 L 6.203125 0 L 1.21875 0 Z M 1.21875 -7.484375 "/></g></g></g><g fill="#12101b" fill-opacity="1"><g transform="translate(102.930331, 67.690094)"><g><path d="M 1.21875 -7.484375 L 2.015625 -7.484375 L 2.015625 -0.6875 L 6.203125 -0.6875 L 6.203125 0 L 1.21875 0 Z M 1.21875 -7.484375 "/></g></g></g><g fill="#12101b" fill-opacity="1"><g transform="translate(111.510246, 67.690094)"><g><path d="M 1.21875 -7.484375 L 2.015625 -7.484375 L 2.015625 0 L 1.21875 0 Z M 1.21875 -7.484375 "/></g></g></g><g fill="#12101b" fill-opacity="1"><g transform="translate(117.024504, 67.690094)"><g><path d="M 5.90625 -2 L 1.734375 -2 L 0.84375 0 L 0.015625 0 L 3.4375 -7.484375 L 4.21875 -7.484375 L 7.640625 0 L 6.8125 0 Z M 5.625 -2.640625 L 3.828125 -6.65625 L 2.03125 -2.640625 Z M 5.625 -2.640625 "/></g></g></g><g fill="#12101b" fill-opacity="1"><g transform="translate(126.971681, 67.690094)"><g><path d="M 7.46875 -7.484375 L 7.46875 0 L 6.8125 0 L 2.015625 -6.078125 L 2.015625 0 L 1.21875 0 L 1.21875 -7.484375 L 1.875 -7.484375 L 6.6875 -1.40625 L 6.6875 -7.484375 Z M 7.46875 -7.484375 "/></g></g></g><g fill="#12101b" fill-opacity="1"><g transform="translate(137.94431, 67.690094)"><g><path d="M 4.46875 0.0625 C 3.726562 0.0625 3.0625 -0.0976562 2.46875 -0.421875 C 1.875 -0.753906 1.40625 -1.207031 1.0625 -1.78125 C 0.726562 -2.363281 0.5625 -3.015625 0.5625 -3.734375 C 0.5625 -4.453125 0.726562 -5.101562 1.0625 -5.6875 C 1.40625 -6.269531 1.875 -6.722656 2.46875 -7.046875 C 3.0625 -7.378906 3.734375 -7.546875 4.484375 -7.546875 C 5.035156 -7.546875 5.546875 -7.453125 6.015625 -7.265625 C 6.484375 -7.078125 6.882812 -6.804688 7.21875 -6.453125 L 6.71875 -5.953125 C 6.125 -6.546875 5.382812 -6.84375 4.5 -6.84375 C 3.90625 -6.84375 3.363281 -6.707031 2.875 -6.4375 C 2.394531 -6.164062 2.019531 -5.789062 1.75 -5.3125 C 1.476562 -4.84375 1.34375 -4.316406 1.34375 -3.734375 C 1.34375 -3.148438 1.476562 -2.625 1.75 -2.15625 C 2.019531 -1.6875 2.394531 -1.316406 2.875 -1.046875 C 3.363281 -0.773438 3.90625 -0.640625 4.5 -0.640625 C 5.394531 -0.640625 6.132812 -0.9375 6.71875 -1.53125 L 7.21875 -1.03125 C 6.882812 -0.675781 6.476562 -0.40625 6 -0.21875 C 5.53125 -0.03125 5.019531 0.0625 4.46875 0.0625 Z M 4.46875 0.0625 "/></g></g></g><g fill="#12101b" fill-opacity="1"><g transform="translate(147.912858, 67.690094)"><g><path d="M 6.515625 -0.6875 L 6.515625 0 L 1.21875 0 L 1.21875 -7.484375 L 6.34375 -7.484375 L 6.34375 -6.796875 L 2.015625 -6.796875 L 2.015625 -4.140625 L 5.875 -4.140625 L 5.875 -3.46875 L 2.015625 -3.46875 L 2.015625 -0.6875 Z M 6.515625 -0.6875 "/></g></g></g><g clip-path="url(#0e7a43f7d9)"><path fill="#205eff" d="M 37.484375 0.0195312 L 74.960938 37.496094 L 74.960938 0.0195312 Z M 37.484375 0.0195312 L 37.484375 37.496094 L 0.00390625 0.0195312 Z M 37.484375 74.976562 L 0.0078125 37.5 L 37.484375 37.5 Z M 74.960938 74.976562 L 37.484375 37.5 L 74.960938 37.5 Z M 74.960938 74.976562 " fill-opacity="1" fill-rule="nonzero"/></g></svg>